<svg xmlns="http://www.w3.org/2000/svg" baseProfile="tiny" viewBox="0 0 498 720"><style>.B{fill:#fff}.C{fill:#ea8cac}.D{stroke-miterlimit:10}.E{fill:#231f20}.F{fill:#fdb997}.G{stroke:#231f20}.H{stroke-linecap:round}</style><path fill="#ff6e91" d="M246.2 0C379.8 244 22.6 155.3 29.9 437c5.5 215 217.5 283 217.5 283H498V0H246.2z"/><path fill="#ff92b1" d="M146.5 346c67.9.7 135.3-27.2 166.5-88.8s97.1-64.1 139.3 8.5c33.6 57.8 61.3 234.2-60.3 281.5-122.2 47.5-208.8 28.7-279.9-26-85.9-66-40.9-175.9 34.4-175.2z"/><path fill="#e86b8f" d="M290.4 266.6c-.2-19.9-25.4-27-41.2-22.7-18.6 5.1-29.4 27.1-11.8 40.5a36.5 36.5 0 0027 6.5c3.1-.4 5.9-2.4 8.6-.6 1.8 1.3 9.1 7.2 11.1 8.3 7.5 4.6-1.2-15.6.9-18a20.6 20.6 0 005.4-14z"/><path fill="#dd3887" d="M294.5 399.3h-78.6v-53.8h54.7c10.7 0 23.9 8.7 23.9 19.4v34.4z"/><path fill="#e86b8f" d="M207.6 379.6l-121-29 18.5-77.2 121 29z"/><path fill="#dd7cdd" d="M210.2 383.5l-121-29 18.5-77.1 121 29z"/><path fill="#cc69d1" d="M160.3 324.8l49.9 58.7-121-29z"/><path fill="#c15dc9" d="M157.6 336.1l-49.9-58.8 121 29z"/><path fill="#d00" d="M288.1 262.9c-.2-19.9-25.4-27-41.2-22.7-18.6 5.1-29.4 27.1-11.8 40.5a36.5 36.5 0 0027 6.5c3.1-.4 5.9-2.4 8.6-.6 1.8 1.3 9.1 7.2 11.1 8.3 7.5 4.6-1.2-15.6.9-18a21 21 0 005.4-14c0-2.6 0 3 0 0z"/><g class="B"><circle cx="244.8" cy="262.6" r="3.2"/><circle cx="256.5" cy="263" r="3.2"/><circle cx="268.2" cy="263.4" r="3.2"/></g><path fill="none" stroke="#ff2ca5" stroke-width="7" d="M246.3 399.3v-29.4a24.4 24.4 0 0124.4-24.4h1.5a24.4 24.4 0 0124.4 24.4v29.4" class="D"/><path fill="#3779d9" d="M262.3 325.2h-11.7v45a6.7 6.7 0 0013.4 0v-8.5l-8.6-5.8v-21.5h6.8c1.8 0 3.3-1.5 3.3-3.3v-2.6c0-1.9-1.4-3.3-3.2-3.3z"/><circle cx="257.3" cy="369.6" r="2.4" fill="#1a06ff"/><path fill="#b70060" d="M241 399.3h-50.3v-29.4a24.4 24.4 0 0124.4-24.4h1.5a24.4 24.4 0 0124.4 24.4v29.4z"/><path fill="#ff2ca5" d="M164.2 394.3h76.9v5h-76.9z"/><path fill="#b70060" d="M247.2 399.3h12.1v37.9h-12.1z"/><path fill="#990058" d="M259.3 412.1l-12.1 6v-18.8h12.1z"/><path fill="#f3f3f5" d="M237.4 361.2h-57.3v33.1h59.1v-24.4a25 25 0 00-1.8-8.7z"/><path fill="#ddd" d="M180.1 361.2H212v33.1h-31.9z"/><path fill="#9e9e9e" d="M184.1 365.5h10.4v.9h-10.4zm0 2.3h10.4v.9h-10.4zm0 2.2h10.4v.9h-10.4zm0 2.2h3.8v.9h-3.8z"/><circle cx="226.3" cy="373.7" r="6.9" fill="#d6d6d6"/><g class="C"><path d="M362.8 276.6l-73.1 34 .5.1 118.8 32 3.3-6.7z"/><path d="M322.7 214.9l90.4 19.3-25.5 119.6-90.4-19.3z"/></g><path fill="#eee" d="M198.1 375.5h32.5v18.8h-32.5z"/><path d="M198.1 375.5l16.3 11.6 16.2-11.6z" class="B"/><path fill="#ff2ca5" d="M216.6 343.4h-1.5a26.2 26.2 0 00-25 17.8h4.5a22.1 22.1 0 0120.5-13.6h1.5c12.3 0 22.3 10 22.3 22.3v29.4h4.2v-29.4a26.5 26.5 0 00-26.5-26.5z"/><path fill="#db943e" d="M353.8 274.9l-72.3 32.7 60.9 20.6 64.6 6.2z"/><path d="M317.7 217.3l90.4 19.3-25.5 119.6-90.4-19.3z" class="B"/><path d="M346.1 333.2l-61.4-20.7-17.2 80.4 126 26.9 17.1-80.4z" class="C"/><path fill="#ffae43" d="M342.4 328.2L281 307.5l-17.1 80.4 125.9 26.9 17.2-80.4z"/><path fill="#666" d="M325.2 227.7l72.2 15.4-.6 2.7-72.2-15.4zm-1.7 8l68.6 14.6-.5 2.7-68.7-14.7zm-1.8 8.1l72.2 15.4-.6 2.7-72.2-15.4zM320 252l68.7 14.6-.6 2.6-68.6-14.6zm-1.7 8l72.2 15.3-.6 2.7-72.2-15.4zm-1.7 8l54.6 11.7-.6 2.6-54.6-11.6zm-1.7 8l72.2 15.4-.6 2.7-72.2-15.4zm-1.8 8.2l67.3 14.3-.5 2.6-67.3-14.3zm-1.7 8l72.2 15.4-.6 2.7-72.2-15.4zm-1.7 8.1l67.3 14.3-.5 2.7-67.3-14.4zm-1.7 8l72.2 15.4-.6 2.7-72.2-15.4z"/><path fill="#db943e" d="M337.6 352.1L264.1 388l125.5 26.7z"/><path d="M243.7 445.2l68.6-62 82.1 90.6-68.6 62z" class="C"/><path d="M243.8 440l68.5-62.2 82.1 90.7-68.5 62z" class="B"/><path fill="#666" d="M256.5 439.9l54.7-49.6 1.8 2-54.7 49.6zm5.5 6.1l52.1-47.2 1.8 2-52 47.2zm5.7 6.1l54.7-49.5 1.8 2-54.7 49.5zm5.5 6.1l52-47.1 1.9 2-52 47.1zm5.6 6.1l54.7-49.5 1.8 2-54.7 49.5zm5.4 6.1l41.4-37.5 1.8 2-41.4 37.5zm5.6 6.1l54.7-49.5 1.8 2-54.7 49.5zm5.5 6.2l51-46.2 1.8 2-51 46.2zm5.5 6l54.7-49.5 1.9 2-54.7 49.5zm5.6 6.1l51-46.1 1.8 2-51 46.1z"/><path d="M351.9 410c11-16.6 36-8.8 47 3.4 12.9 14.4 9.9 38.7-12.2 40.4a37 37 0 01-26.2-9.2c-2.4-2-3.6-5.2-6.9-5.1-2.2.1-11.5 1.1-13.8.9-8.8-.2 9.5-12.4 9-15.6-.7-5.2.2-10.5 3.1-14.8 1.5-2.2-1.6 2.4 0 0z" class="C"/><path fill="#666" d="M312 501l54.6-49.6 1.8 2-54.7 49.5z"/><path fill="#e8d91c" d="M350.3 406.6c11-16.6 36-8.8 47 3.4 12.9 14.4 9.9 38.7-12.2 40.4a37 37 0 01-26.2-9.2c-2.4-2-3.6-5.2-6.9-5.1-2.2.1-11.5 1.1-13.8.9-8.8-.2 9.5-12.4 9-15.6-.7-5.1.2-10.4 3.1-14.8 1.4-2.2-1.7 2.5 0 0z"/><g class="B"><circle cx="367.2" cy="417.1" r="3.2"/><circle cx="376.8" cy="423.8" r="3.2"/><circle cx="386.3" cy="430.5" r="3.2"/><path d="M217.3 284.6c-1.4 0-2.7.2-3.9.6a19 19 0 10-37.9 2 10.5 10.5 0 00-19.3 7.7 7.5 7.5 0 10-3.7 14h64.8c6.8 0 12.3-5.5 12.3-12.3 0-6.5-5.5-12-12.3-12z"/></g><path fill="#352f2d" d="M315.4 433.6c.5.3 1.2.1 1.5-.4l2.9-5.1c.3-.5.1-1.2-.4-1.5s-1.2-.1-1.5.4l-2.9 5.1c-.4.5-.2 1.2.4 1.5zm41.4-70.6c1.6.9 3.7.3 4.6-1.3l4.4-7.7c.9-1.6.3-3.7-1.3-4.6l-2-1.1a3.4 3.4 0 00-4.6 1.3l-4.4 7.8a3.4 3.4 0 001.3 4.6l2 1z"/><path fill="#585dc6" d="M316.1 420.7l.4-1.1 35.3-62.5c1-1.5 2.9-2 4.5-1.1l4.8 2.7c1.6.9 2.2 3 1.3 4.6l-1.6 2.9-33.6 59.4c-.2.4-.5.7-.8.9l-.3.4c-3 3-7.6 3.8-8.5 3.3-1.1-.6-2.8-5.3-1.5-9.5z"/><path fill="#7fbfef" d="M317.5 430.2c-1.1-.6-2.7-5.3-1.4-9.5l.4-1.1 35.3-62.5-25.8 69.8c-3 3-7.6 3.8-8.5 3.3z"/><g fill="#352f2d"><path d="M358.8 369.5l-10.7-6 2-3.3 10.5 6z"/><path d="M342.7 382.8c.7.4 1.5.1 1.9-.5l12.1-21.4c.4-.7.1-1.5-.5-1.9-.7-.4-1.5-.1-1.9.5l-12.1 21.4c-.4.7-.1 1.5.5 1.9z"/></g><path fill="#d8bf30" d="M149.1 387.2l-58.9 57.4 66.6-1.5 65.1-16.6z"/><path d="M124.6 418c1.1 8.4 5.8 22.2-9.3 14.1-2.4-1.3-3.8-2.1-8-9.8-5.9-10.9-7.2-17 0-17.6 6.1-.4 16.2 4.9 17.3 13.3zm55.9-7c1.1 8.4-.2 22.9 12.5 11.4 2-1.8 3.2-3 5.4-11.5 3.1-12 2.8-18.3-4.3-17-6.2 1.1-14.7 8.7-13.6 17.1z" class="F"/><path fill="none" stroke-width="2" d="M196 406.8s-1.3-.2-1.5-.6c-.7-1.2 1.3-2.6 1.2-3.6-.1-1.1-1.9-1-1.9-1m-85.3 16.1s1.2-.5 1.3-1c.4-1.4-1.9-2.3-2-3.2-.2-1.1 1.6-1.5 1.6-1.5" class="D G"/><g class="F"><path d="M145 347.8s-22.4 1.7-27.4 6.1a49.7 49.7 0 00-12 15c-.4 1.3-2.4 4.1-1.4 10.4.4 2.6.9 4.6 2.4 9.4 1.4 4.6 3.6 10.8 6.2 18.8 2.5 7.6 8.1 21.2 9.9 29 2.1 8.9 1.6 6.5 3 11.3.7 2.4.9 4.5 3.8 6.3 1.5.9 5.5 2 8.6 3.6 3 1.5 9.9 3.7 12.7 4.6 3.3 1.1 10.1.2 10.1.2"/><path d="M144.7 347.9s21.5-3.8 27.3-.7a51.3 51.3 0 0115 11.6c.7 1.2 3.3 3.4 3.9 9.8.3 2.7.2 4.7 0 9.7-.2 4.8-.7 11.3-1.3 19.7-.5 8-2.5 22.5-2.3 30.5.2 9.2.1 6.7-.1 11.7-.1 2.5.3 4.5-2.1 7-1.2 1.3-4.7 3.3-7.3 5.6-2.4 2.2-8.5 6-10.8 7.6-2.9 1.9-9.5 2.6-9.5 2.6"/></g><g class="E"><path d="M115.1 395.6a70 70 0 002.3 17.4l-2.7.3c-14.9-34.1-15-44.8-.1-58.4 8.9-8.1 29.7-7.9 29.7-7.9l3.6 29.7s-9.1 1.9-26.8-6.8"/><path d="M184.1 386.9c1.9 3.8 2 17.4 2 17.4l2.7-.3c6-36.7 3.5-47.2-14.2-56.6-10.6-5.7-30.7-.3-30.7-.3l3.9 29.7s9.3-.4 24.3-13.2"/></g><path fill="#dc9999" d="M174.2 426.7c-1.3-10-11.1-17.1-22.1-15.7-10.9 1.4-18.8 10.6-17.5 20.6s11.1 17 22.1 15.7c10.9-1.4 18.7-10.6 17.5-20.6z"/><path d="M175.5 419.7c-1.3-10-12.1-16.9-24.2-15.4s-21 10.9-19.7 20.9 12.1 16.9 24.2 15.4 21-10.8 19.7-20.9z" class="F"/><g class="E"><path stroke-width="3" d="M154.2 433.2c-.6 3.7-6.2 5.4-14 4.4-2.1-.3-5.2-1.3-7-3.5a9.5 9.5 0 01-2.3-4.2l.6.6c.9.8 1.3 1.1 2.4 1.3 1.4.4 3 .3 4.2.3 5.8-.2 8-2.9 10.4-4.3.5-.3 1.4-.5 2.2-.6.7-.1 1.4 0 1.7.3l1.1 1.1c.3.4.6.9.7 1.4a17 17 0 010 3.2zm1.4-.2c1.5 3.4 7.3 3.8 14.6.9 2-.8 4.7-2.6 5.9-5.1a9.8 9.8 0 001.2-4.6l-.5.7c-.7 1-1 1.3-2 1.9-1.2.7-2.8 1-4 1.3-5.6 1.3-8.4-.8-11.1-1.6-.5-.1-1.5-.2-2.3-.1-.7.1-1.3.3-1.6.7l-.8 1.3c-.2.5-.4 1-.3 1.5.2 1.1.6 2.4.9 3.1z" class="D G"/><ellipse cx="165.6" cy="404.5" rx="12.3" ry="12.2" transform="rotate(262.9 165.6 404.5)"/></g><path d="M174.4 403.4a9 9 0 01-17.8 2.2 9 9 0 0117.8-2.2z" class="B"/><path d="M166.7 404.4a5.2 5.2 0 01-4.5 5.8 5 5 0 01-5.7-4.5 5.2 5.2 0 014.5-5.8 5 5 0 015.7 4.5z" class="E"/><path d="M161.7 405c.2 1.3-.8 2.5-2.1 2.7s-2.5-.8-2.7-2.1.8-2.5 2.1-2.7c1.3-.1 2.5.8 2.7 2.1z" class="B"/><path d="M149.6 406.5a12.2 12.2 0 11-24.2 3 12.3 12.3 0 0110.6-13.7c6.6-.8 12.7 4 13.6 10.7z" class="E"/><path d="M146.3 406.9a9 9 0 01-17.8 2.2 9 9 0 0117.8-2.2z" class="B"/><path d="M136.4 408.7a5.1 5.1 0 117.5-7.1 5.1 5.1 0 11-7.5 7.1z" class="E"/><path d="M140.1 405.2c-.9-1-.9-2.5.1-3.4s2.5-.9 3.4.1.9 2.5-.1 3.4-2.5.9-3.4-.1z" class="B"/><path fill="none" stroke-width="4" d="M153.4 393.4c4.8-9.4 18.8-7.2 21.3-2.7m-49.3 7.1c4.8-9.4 18.8-7.6 21.2-3.1" class="D G H"/><path d="M94.6 448.7l132.2-18.2 11.6 84.3L106.2 533z" class="C"/><path fill="#e8d33a" d="M89.6 444.7l132.2-18.2 11.6 84.3L101.2 529z"/><path fill="#d8bf30" d="M159.4 471.5L99.9 529l132.2-18.2z"/><path fill="#ccc" d="M185.3 445.9c.1-.2-11.2 6.8-11.2 6.8l2.9 19.1 5.5-14.3 14.6-2.8 20.8-19.6-32.6 10.8z"/><path fill="#999" d="M218 435.1l-41 36.6 5.6-14.2z"/><path d="M218 435.1l-54.2 11.5 10.3 6.1 43.9-17.6-35.4 22.4 17.5 10.8z" class="B"/><path fill="#ed4a64" d="M120.1 507.4c26 12 44.6-28.2 18.6-40.2-25.9-12-44.6 28.2-18.6 40.2 11.1 5.2-11.1-5.1 0 0z"/><path d="M133 472.4c-9.9-5.1-12.4 8-7.8 4.8 2.3-1.6 8.5-2.4 8.1 2.2-.3 3.6-4.9 6-6.5 9.1-4.4 8.5 4.3 9.7 3.3 6.1-2.1-7.2 15.6-15.6 2.9-22.2-3.9-2 2.7 1.4 0 0z" class="B"/><path fill="#ed4a64" d="M143.3 499.6l2.6 13v1.8c-.4 2.2-3.1 3-4.6 1.3a40.5 40.5 0 01-3.1-3.7 18 18 0 00-5.9-5.1l11-7.3z"/><circle cx="129" cy="502" r="2.5" class="B"/><circle cx="254.2" cy="479.9" r="11.8" class="C"/><circle cx="251.2" cy="476.9" r="11.8" fill="#2cba20"/><path fill="none" stroke="#fff" stroke-linejoin="round" stroke-width="4" d="M246 476.3l4.6 4.6 6.4-8.2" class="D H"/></svg>