<svg xmlns="http://www.w3.org/2000/svg" width="498" height="720"><style>.B{fill:#fff}.C{stroke-miterlimit:10}.D{fill:#ccc}.E{fill:#000}.F{fill:#fbc}.G{stroke:#000}</style><path fill="#fb0" d="M246.5 0C380 244 23.2 155.3 30.5 437 36 652 247.7 720 247.7 720H498V0H246.5z"/><path fill="#fd6" d="M131.2 337.4c68 .7 135.3-27.2 166.5-88.8s97-64 139.3 8.5c33.6 57.8 61.3 234.2-60.3 281.5-122.2 47.5-208.8 28.7-280-26-86-66-41-176 34.3-175.3z"/><path fill="#f66" d="M350.7 479a140 140 0 0038.7-96.7C389.3 305 326.5 242 249 242s-140.3 63-140.3 140.4a140 140 0 0038.7 96.7h203.3z"/><path stroke="#c33" stroke-width="2" d="M175.3 358h-25v-34.7c0-1.2 1-2.2 2.4-2.2H177l-1.6 37z" class="B C"/><path fill="#090" d="M149.8 322.4h25.5v36h-25.5z"/><path d="M154.2 321.7l-.3.4c-.2.2-.3.5-.3.8v14.4l3.6-4 3.6 4v-14.4c0-.3.1-.5.3-.8l.3-.4h-7.2z" class="B"/><path d="M229 306.2c0 6.5 2.3 17.5-8.4 10-1.7-1.2-2.7-2-5.2-8.2-3.5-8.8-4-13.7 1.7-13.4 4.7.2 12 5.2 12 11.7zm43.3 0c0 6.5-2.3 17.5 8.4 10 1.7-1.2 2.7-2 5.2-8.2 3.5-8.8 4-13.7-1.7-13.4-4.7.2-12 5.2-12 11.7z" class="F"/><path fill="none" d="M284.6 304.5s-1-.3-1-.6c-.5-1 1.2-2 1.2-2.7 0-1-1.4-1-1.4-1m-66.6 4.3s1-.3 1-.6c.5-1-1.2-2-1.2-2.7 0-1 1.4-1 1.4-1" class="C G"/><path d="M235 334.3h32V356h-32z" class="F"/><path d="M235 333.3v22.5h18.7l13.6-18.7z" class="E"/><g class="F"><path d="M251.3 254.7s-17.2-1-21.5 2c-3.5 2.4-9.4 7.6-10.6 10.3-.4 1-2.2 3-2 7.8.1 2 .3 3.6 1 7.4l3 15c1.2 6 4 17 4.8 23 .8 7 .6 5 1.2 9 .3 2 .2 3.5 2.3 5 1 1 4 2 6.3 3.6 2 1.5 7.2 3.7 9.2 4.7 2.4 1.2 7.7 1 7.7 1"/><path d="M251 254.7s16.7-1 21 2c3.4 2.4 9.2 7.6 10.3 10.3.4 1 2.2 3 2 7.8-.1 2-.3 3.6-1 7.4-.6 3.6-1.6 8.6-3 15l-6 32c-.3 2-.2 3.5-2.2 5-1 1-4 2-6 3.6-2 1.5-7 3.7-9 4.7-2.4 1.2-7.5 1-7.5 1"/></g><g class="E"><path d="M224 288.2c-1 3 .1 13.5.1 13.5h-2c-8-27.4-7.2-35.6 5.4-44.5C235 252 251 254 251 254l-.1 23s-7 .6-19.8-7.7"/><path d="M277.4 288.2c1 3-.1 13.5-.1 13.5h2c8-27.4 7.2-35.6-5.4-44.5-7.6-5.3-23.4-3.2-23.4-3.2l.1 23s7 .6 19.8-7.7"/></g><path fill="#c96" d="M266 317.5c0-7.8-7-14-15.3-14s-15.3 6.3-15.3 14 7 14 15.3 14 15.3-6.3 15.3-14z"/><path d="M267.7 312.4c0-7.8-7.6-14-17-14s-17 6.3-17 14 7.6 14 17 14 17-6.3 17-14z" class="F"/><path stroke-width="3" d="M250.2 320.6c-.8 2.8-5.2 3.6-11 2-1.6-.4-3.8-1.5-5-3.3-.6-1-1.2-2-1.4-3.4l.4.5c.6.7 1 1 1.7 1.3 1 .4 2.3.5 3.2.6 4.4.4 6.3-1.4 8.3-2.3.4-.2 1-.3 1.8-.3.5 0 1 .1 1.3.4.2.2.5.6.7 1s.4.8.4 1a10 10 0 01-.3 2.5zm1 0c.8 2.8 5.2 3.6 11 2 1.6-.4 3.8-1.5 5-3.3.6-1 1.2-2 1.4-3.4l-.4.5c-.6.7-1 1-1.7 1.3-1 .4-2.3.5-3.2.6-4.4.4-6.3-1.4-8.3-2.3-.4-.2-1-.3-1.8-.3-.5 0-1 .1-1.3.4-.2.2-.5.6-.7 1l-.4 1a13 13 0 00.3 2.5z" class="C E G"/><circle cx="261.6" cy="299.8" r="9.4" class="E"/><path d="M268.4 299.8c0 3.8-3 7-7 7s-7-3-7-7 3-7 7-7 7 3 7 7z" class="B"/><path d="M262.5 299.8c0 2.2-1.8 4-4 4s-4-1.8-4-4 1.8-4 4-4 4 1.8 4 4z" class="E"/><path d="M258.6 299.8c0 1-.8 1.8-1.8 1.8s-1.8-.8-1.8-1.8.8-1.8 1.8-1.8 1.8.8 1.8 1.8z" class="B"/><path d="M249.2 299.8c0 5.2-4.2 9.4-9.4 9.4s-9.4-4.2-9.4-9.4 4.2-9.4 9.4-9.4 9.4 4.2 9.4 9.4z" class="E"/><path d="M246.7 299.8c0 3.8-3 7-7 7s-7-3-7-7 3-7 7-7 7 3 7 7z" class="B"/><path d="M239 300.3a4 4 0 01.8-5.6c1.8-1.3 4.2-1 5.5.8a4 4 0 01-.8 5.6c-1.8 1.3-4.2 1-5.5-1z" class="E"/><path d="M242 298c-.6-.8-.4-2 .4-2.6.8-.6 2-.4 2.6.4.6.8.4 2-.4 2.6s-2 .4-2.6-.4z" class="B"/><path fill="none" stroke-linecap="round" stroke-width="3" d="M253.3 290.2c4.6-6.7 15-3.7 16.5 0m-38.2.8c4.6-6.7 15-4 16.5-.3" class="C G"/><path fill="#c33" d="M303.7 354c-11.7-3.3-25.3-5.5-36.6-5.3-.4.7-2 2-2.6 2.4-3.8 2.5-8.8 3.4-13.6 3.4-4.8 0-9.6-1-13.4-3.4-.7-.5-2.5-1.4-2.8-2-11.3-.2-25 1.6-36.6 5-17.2 4.8-24.7 56-27 78.3-.7 6.3 28.2 16 28.2 16h103.6s29-9.6 28.2-16c-2.5-22.3-10-73.5-27.2-78.3z"/><path fill="#333" d="M113 465.5h272.4v45H113z"/><path fill="#0c6" d="M404.2 471.4H93.8c-1.7 0-3-1.2-3-2.7v-6.3c0-1.5 1.4-2.7 3-2.7h310.3c1.7 0 3 1.2 3 2.7v6.3c0 1.5-1.4 2.7-3 2.7z"/><path fill="#999" d="M118.4 344.2l-27 20.8H146z"/><path d="M99.4 350.4h38v47h-38z" class="B"/><path fill="#da0" d="M143.7 399.2h-50L91.4 365H146z"/><g class="B"><path d="M118.7 383l-24.4-18h-3l27.3 21.7L143 365z"/><path d="M118.7 383.8L94 399.2h3l21.7-12.2 24.8 12.2z"/></g><path fill="#c00" d="M314.4 336.7s-3.2-7-8.4-1.6c-3.7 4 .3 7 3.6 8.8 3.6 2 5 4.6 5 4.6s3.8-4 7-5c2.3-.6 6.2-4.6 2.3-8.2-4-3.7-8-.6-9.6 1.3z"/><path fill="#36c" d="M201.7 319.4c8.6.5 16.6 5.3 16.3 11-.1 2-1.3 4-3 5.6l4.4 6.6-8.4-4.3c-2.6 1-7 1.6-10.5 1.4-8.6-.5-16.3-5.3-16-11s8.6-9.7 17.2-9.3z"/><path d="M125.6 457.2l5.5 2 23-.6 2.6-1.3 1-36.7-.8-1-3-1-11.7-1.3-11.2.7-3 .6-2.6 1.2-.8 1v1z" class="B"/><path fill="#c06" stroke="#c06" d="M125.7 421.4c1 1.2 3.6 1.8 4.5 2l5 .8c2 .2 4 .3 6 .3l6-.3c1.7-.2 3.4-.4 5-.8 1-.2 3.6-.8 4.5-2v2.8h5.8c2.3 0 4.2 2 4.2 4.5v15.5c0 2.5-2 4.5-4.2 4.5H157v7.8c0 2-7 3.6-15.7 3.6s-15.7-1.6-15.7-3.6v-35zm31.4 24.7h5.6c1 0 2-1 2-2v-14.7c0-1.2-1-2-2-2H157v19zm-3.4-22.5v34.5c1-.3 1.8-.6 2.4-1v-34.5a11 11 0 01-2.4.9h0zm-27 33.5c1 .6 2.6 1 4.7 1.5v-34.3a23 23 0 01-1.3-.3c-.7-.2-2.3-.5-3.4-1.2v34.3z" class="C"/><path d="M141.4 420.8c4.7 0 9 .5 12.3 1.3-3.2.8-7.5 1.3-12.3 1.3s-9-.5-12.3-1.3c3.2-.8 7.5-1.2 12.3-1.2z"/><path fill="#fff" d="M149.7 422.3c11.6-9.4-10.7-12-3.4-17 2.2-1.5 3.8-2.2 3.5-5.2-.2-2.2-1.5-4-3-6 1.3 3.3 4 7.2-.2 9.6-6.6 3.8-6.4 6-2.2 10 3.7 3.5 1 5.7-2.5 8.4a74 74 0 017.7.1z"/><path stroke="#000" d="M393.3 450.3h-44.6c-3.4 0-6.2-2.8-6.2-6.2v-72c0-3.4 2.8-6.2 6.2-6.2h44.6c3.5 0 6.2 2.8 6.2 6.2v72c0 3.5-2.8 6.2-6.2 6.2z" class="B C"/><path fill="#fc0" d="M399.5 374.6V372c0-3.4-2.8-6.2-6.2-6.2h-44.6c-3.4 0-6.2 2.8-6.2 6.2v2.5h57z"/><g class="B"><circle cx="349.2" cy="370.4" r="1.7"/><circle cx="355.5" cy="370.4" r="1.7"/><path d="M360 370.4c0-1 .7-1.7 1.7-1.7s1.7.7 1.7 1.7-.7 1.7-1.7 1.7-1.7-.7-1.7-1.7z"/></g><path fill="#ccf" d="M349.8 378.5h44.3v28.7h-44.3z"/><path d="M349.7 410.4h44.6v2.8h-44.6zm0 5.2h44.6v2.8h-44.6zm0 5.6h44.6v2.8h-44.6zm0 5.2h44.6v2.8h-44.6zm0 5.6h44.6v2.8h-44.6zm0 5.2h44.6v2.8h-44.6z" class="D"/><path fill="#36c" d="M349.8 407.2h35l-9.4-14.8-6.4 10-11-17.7-8.2 11.4z"/><path fill="#fe0" d="M264.6 235.5c-.1 7-5.8 11.3-6 17.6-.3 6.4-3 10.7-8.2 10.4-5.8-.2-7.8-5-7.5-11.6.3-6.2-4.6-10-4.3-17.3.3-7.4 6.8-13 14.2-12.4 6.8.6 12 6.4 12 13.2z"/><path fill="#f90" d="M260.8 232c2 5-.5 10.8-5.5 12.8s-10.8-.5-12.8-5.5.5-10.8 5.5-12.8 10.8.5 12.8 5.5z"/><path stroke="#fff" d="M259 231.7c-.6-.6-1.4-.3-2 .3-.4.6-.6 1.4-.8 2.2-.6 2.8-1 5.7-1.2 8.7-.7-.1-1.3-.6-1.8-1.4l-.3-.6c1.5-2.4 2-5.8 1.6-8.7-.2-.8-.6-1.7-1.3-1.7-.6 0-1 .8-1.2 2-.2 2-.2 3.8-.1 5.7.1.8.2 1.8.5 2.7h0c-.6 1-1.7.8-2.2-.1h0c.4-1 .5-1.8.7-2.6.3-2 .4-3.8.3-5.7-.1-1.4-.6-2.2-1.3-2-.4.1-.8.5-1 1-1 3-.6 6.7.8 9.4l-.3.6c-.5.8-1.2 1.2-2 1.2l-.6-8.8c-.1-.8-.3-1.6-.7-2.2-.4-.7-1.3-1-2-.5-.6.5-.6 1.4-.7 2 0 2.4.4 4.8 1 7 .5 1.6 1.2 2.5 2 2.8.1 0 .2.1.2.1 0 4-.4 8.3-1.2 12.3l.4.1c.8-4 1.2-8.2 1.2-12.3 1 0 1.7-.7 2.2-1.4l.3-.5c.1.1.2.3.3.5.5.7 1.4.8 2 .1l.3-.4c.1.2.1.3.2.5.4.8 1.2 1.6 2 1.7a66 66 0 00.4 12.4l.4-.1a65 65 0 01-.4-12.4c.1 0 .2 0 .3-.1.8-.2 1.6-1 2.2-2.6 1-2 1.5-4.5 1.6-7 0-.7 0-1.6-.5-2.2zm-12 10.7c-.7-.3-1.3-1-1.8-2.5-.7-2-1-4.5-1-6.8 0-1 .2-1.4.5-1.7.1-.1.3-.2.5-.1.3 0 .7.2 1 .6.3.5.5 1.3.6 2 .4 2.8.6 5.7.6 8.6h-.1zm3-2.2c-1.2-2.4-1.5-5.5-.8-8.2.2-.6.5-1.2 1-1.2 0 0 0 0 0 0 .5.1.6 1 .7 1.6.1 2 0 3.7-.3 5.5-.1.7-.3 1.5-.5 2.2zm2.8.2c-.2-.8-.3-1.5-.4-2.3-.2-1.8-.1-3.7.1-5.6.1-.7.3-1.5.8-1.6 0 0 0 0 0 0 .4 0 .7.7.8 1.3a12 12 0 01-1.3 8.1zm4.7.3c-.6 1.3-1.2 2-2 2.3h-.1c.2-3 .6-5.8 1.2-8.5.2-.7.3-1.4.7-2 .2-.3.6-.5 1-.5.2 0 .3.1.4.2.3.3.4 1 .4 1.8-.1 2.3-.7 4.6-1.5 6.7z" class="B C"/><path fill="#ccc" d="M242.8 254.5l15.5.7s.1 11-8 10.6-7.4-11.3-7.4-11.3z"/><path d="M252.3 209.6c-.7 0-1.4.6-1.4 1.3l-.2 5c0 .7.6 1.4 1.3 1.4s1.4-.6 1.4-1.3l.2-5c0-.7-.6-1.4-1.3-1.4zm8.7 3.6c-.4-.2-.8 0-1 .4l-1 2.6c-.2.4 0 .8.4 1s.8 0 1-.4l1-2.6c.2-.4 0-.8-.4-1zm13 13.2c-.1-.4-.6-.6-1-.4l-2.6 1c-.4.1-.6.6-.4 1s.6.6 1 .4l2.6-1c.4-.1.6-.6.4-1zM243 213c-.4.2-.6.6-.4 1l1 2.6c.2.4.6.6 1 .4s.6-.6.4-1l-1-2.6c-.2-.4-.6-.6-1-.4zm-13.2 12.3c-.2.4 0 .8.4 1l2.6 1.2c.4.2.8 0 1-.4s0-.8-.4-1l-2.6-1.2c-.4-.2-.8 0-1 .4zm40.4-7.8c-.5-.5-1.4-.6-2-.1l-3.6 3.4c-.5.5-.6 1.3-.1 2s1.4.6 2 .1l3.6-3.4c.5-.5.6-1.3.1-2zm7 18.3c0-.7-.6-1.4-1.3-1.4l-5-.2c-.7 0-1.4.6-1.4 1.3s.6 1.4 1.3 1.4h5c.7 0 1.4-.6 1.4-1.3zm-51.2-1.4c0 .7.6 1.4 1.3 1.4l5 .2c.7 0 1.4-.6 1.4-1.3s-.6-1.4-1.3-1.4l-5-.2c-.7 0-1.4.6-1.4 1.3zm8-18c-.5.5-.6 1.3-.1 2l3.4 3.6c.5.5 1.3.6 2 .1s.6-1.4.1-2l-3.4-3.6c-.5-.5-1.3-.6-2-.1z" class="B"/><g stroke="#fe0" class="C"><path fill="#fe0" d="M203.7 284.8c-.4.2-1 .2-1.3 0-.2-.1-.5-.2-.7-.3-.4-.2-1-.1-1.4.1h0l-.8.3 3 9c-2.7 1-4 3.5-2.4 4.4 1.3.8 2.7-1 3.3-2.4.2-.5.3-1.2.1-1.7L201 286c.3-.2.7-.2 1-.2l1.2-.2c.4-.1.7-.4 1-.8.1-.2.1-.4 0-.5 0 .2-.1.3-.3.3z"/><path fill="#fe0" d="M212 270.6l1.7-2.2-6.5-5-5.7 7.2c-2.2-1.7-5-1.4-5 .3.1 1.5 2.3 1.7 3.7 1.5.6-.1 1-.4 1.5-1l5-6.3 5.2 4-4.7 6c-2.2-1.7-5-1.4-5 .3.1 1.5 2.3 1.7 3.7 1.5.6-.1 1-.4 1.5-1l4.3-5.5z"/></g><path d="M308.7 317l-.5-1.3c-.1-.4-2-.1-2-.1-.6-1-1.6-2.2-2.7-3 0 0 .4-1.7.1-2l-1.3-.6c-.4-.2-1.4 1.3-1.4 1.3-1.3-.4-2.7-.4-4-.2 0 0-1-1.5-1.3-1.4l-1.3.5c-.4.1-.1 2-.1 2-1.2.6-2.2 1.6-3 2.7 0 0-1.7-.4-2-.1l-.6 1.3c-.2.4 1.3 1.4 1.3 1.4-.4 1.3-.4 2.7-.2 4 0 0-1.5 1-1.4 1.3l.5 1.3c.1.4 2 .1 2 .1.6 1 1.6 2.2 2.7 3 0 0-.4 1.7-.1 2l1.3.6c.4.2 1.4-1.3 1.4-1.3 1.3.4 2.7.4 4 .2 0 0 1 1.5 1.3 1.4l1.3-.5c.4-.1.1-2 .1-2 1-.6 2.2-1.6 3-2.7 0 0 1.7.4 2 .1l.6-1.3c.2-.4-1.3-1.4-1.3-1.4.4-1.3.4-2.7.2-4 0 0 1.5-1 1.4-1.3zm-5.5 5c-1.2 2.5-4 3.6-6.6 2.4s-3.6-4-2.4-6.6 4-3.6 6.6-2.4c2.5 1.2 3.6 4 2.4 6.6z" class="B"/><circle cx="353.9" cy="342.3" r="19.4" fill="#999"/><circle cx="352.5" cy="340.7" r="18.7" fill="#36c"/><path fill="#0c6" d="M364 326c-4.6-.7-14.5-1.6-15 2.4-.3 2.7 3.2 1.7 3.5 3.6s-.6 3.3 2.5 3.6 6 .8 4.3 2.7-5.5 2.3-6.7 4.4 1 4.6 1.3 6.4 1 5.6 6 6.2c-.2-2.8 1-4.7 1.2-7.8s-2-5.2 0-6.6 2.4 1 5 0c2.4-1 1-3.4 5-3-.8-4.8-3.3-9-7-11.8zm-18.3 28.6c-.2-1.6 2.4-3.3 2.5-5.8s-2.8-3.2-3.8-5.2 1-7.3 1.4-10.2-2.8-4-5-4a6 6 0 01-2.9-.5c-2.6 3.2-4 7.3-4 11.7 0 4 1.3 7.7 3.4 10.7.3-.8.8-1.5 1.8-2 2.5-1 5.3 4 6.6 5z"/><path fill="#999" d="M340.2 314h-11l1-11.5h8.8z"/><path d="M344.6 315h-19.8c-.2 0-.4-.2-.4-.4v-1.2c0-.2.2-.4.4-.4h19.8c.2 0 .4.2.4.4v1.3c0 .2-.2.4-.4.4zm17-8.8H308c-.7 0-1.4-.6-1.4-1.3l-1.3-31c0-.8.6-1.4 1.4-1.4l56.5.7c.8 0 1.3.6 1.3 1.4L363 305c0 .7-.6 1.3-1.3 1.3z" class="D"/><path fill="#000" d="M361.5 304.5H308l-1.2-30 56 .7z"/><path fill="#6cf" d="M361 304h-52.6l-1.2-29 55 .7z"/><path d="M358.8 304h-48l-1-25 50.3.6z" class="B"/><path fill="#000" d="M360 279l.1-2.6-51-.6.1 2.7z"/><path d="M357 278.3v-1.5l-41.4-.3.1 1.5z" class="B"/><path d="M315.4 302.5c0-.2-.4-.7-.4-.7-.1 0-.8 0-1-.2v-.2c.1-.1.2-.2.2-.3.1.1.2-.1.2-.2s0-.6-.1-.7c0-.1-.7-.4-.7-.4s-.7.3-.7.4c0 .2-.1.7 0 .7 0 .1.1.3.2.2 0 .1.3.3.3.3v.2c-.1.2-.8.2-1 .2-.1 0-.4.5-.4.7h3.3z"/><path d="M316 300v2.5h20V300zm-4.2-6.4l.1 5.4h24.4l.1-5.4z" class="D"/><path d="M336.4 296.6H312l-.4-16.4 25.2.1z"/><path fill="#f63" d="M327.7 288.5c0 2-1.6 3.5-3.6 3.5s-3.6-1.6-3.6-3.6 1.6-3.6 3.6-3.6 3.6 1.6 3.6 3.6z"/><path d="M322.5 290.6v-4.3l4 2z" class="B"/><path d="M339.5 280.6h6.3v3.8h-6.3z"/><path d="M347 280.6h10.6v3.8H347zm0 5h10.6v3.8H347z" class="D"/><path d="M339.5 285.6h6.3v3.8h-6.3zm0 5h6.3v3.8h-6.3z"/><path d="M347 290.6h10.6v3.8H347zm0 5h10.6v3.8H347z" class="D"/><path d="M339.5 295.6h6.3v3.8h-6.3z"/><path d="M319 369l-140-2c-2 0-2 2-2 3l8 81c.1.7.8 1.2 1.7 1.2H314c1.5 0 2.8-.8 2.8-1.7l4.3-80c0-1-.7-1.5-2-1.5z" class="D"/><path fill="#333" d="M319 459.6H183c-1 0-2-.8-2-1.8l-.4-4.7c-.1-1 .7-1.8 1.8-1.8h137.7c1 0 2 .8 1.8 1.8l-.4 4.7c-.1 1-1 1.8-2 1.8z"/><circle cx="248.1" cy="395.9" r="6.2" class="B"/><path fill="#999" d="M312.5 446.6H210.2c-11.6 0-20.2 2.2-21.2-7.6l-4.3-48.8c19 9.7 41 26.3 62 30.7 14.6 3 72.8 4.7 66 25.7z"/><g stroke="#36c" class="B C"><path d="M202 323.2l-3 12h-2.5l3-12zm3.8 0l-3 12h-2.5l3-12z"/><path d="M195.5 328.4l12.3.1.6-2.4H196zm-1 4h12.3l.6-2.4H195z"/></g><path d="M191.5 275l-57.2-1c-.8 0-.8.8-.8 1.3L138 310c0 .3.3.5.7.5h49.7c.6 0 1-.3 1-.7l3-34.3c0-.4-.3-.7-.8-.7z" class="D"/><path fill="#000" d="M190 277.5l-54.4-1 3.8 32 48 .4z"/><path fill="#6cf" d="M189 278.5l-52.2-1 3.3 30 46.6.3z"/><path fill="#666" d="M191.5 313.7H136c-.4 0-.8-.3-1-.8l-.2-2c0-.4.3-.8.7-.8h56.3c.4 0 .8.3.7.8l-.2 2c0 .4-.4.8-1 .8z"/><path fill="#000" d="M144.3 268.6l1.7 39 31.7.2 1.8-38.5z"/><path fill="#3cc" d="M178.3 274l.1-2.8-31-.6.1 3z"/><g class="B"><path d="M175 273.4v-1.6l-21-.3.1 1.6zm-27.3 9.2l1 25 28 .2 1.2-25zm10-5.6c0 .6-.3 1-1 1 .3 0 .6.1.8.3s.3.4.3.8c0 .1 0 .3-.1.4s-.1.3-.2.4-.3.2-.5.3-.5.1-1 .1h-3.3V276h3.5c.3 0 .5 0 .7.1s.3.1.4.2.2.2.2.4v.4zm-3 .8h1c.1 0 .2 0 .3-.1s.1-.2.1-.3 0-.2-.1-.3-.1-.1-.3-.1h-1v.8zm1 1.4c.2 0 .3 0 .3-.1s.1-.2.1-.3 0-.3-.1-.3-.2-.1-.3-.1h-1v.8h1zm5-2.2c-.2 0-.3 0-.4.1s-.1.1-.1.3v2h.8c.1 0 .1 0 .1-.1s.1-.1.1-.2v-.4h1v1.8H158v-1c.2 0 .3 0 .4-.1s.1-.1.1-.3v-1.5c0-.1 0-.2-.1-.3s-.2-.1-.4-.1v-1h2.7v1z"/><path d="M162.5 278c0-.4.1-.7.2-1a2 2 0 01.5-.7c.2-.2.5-.3.8-.4s.7-.1 1-.1c.4 0 .7 0 1 .1s.6.2.8.4.4.4.5.7.2.6.2 1-.1.7-.2 1-.3.5-.5.7-.5.3-.8.4-.7.1-1 .1-.7 0-1-.1-.6-.2-.8-.4a2 2 0 01-.5-.7c-.1-.3-.2-.6-.2-1zm2 0v.6c0 .2 0 .3.1.4s.1.2.2.2.2.1.3.1.2 0 .3-.1l.2-.2c.1-.1.1-.2.1-.4v-1.2c0-.2 0-.3-.1-.4s-.1-.2-.2-.2-.2-.1-.3-.1-.2 0-.3.1l-.2.2c-.1.1-.1.2-.1.4v.6zm7.3 2.2l-.1-.3c-.1.1-.3.2-.5.3s-.5.1-.8.1-.6 0-1-.1-.5-.2-.8-.4-.4-.4-.5-.7-.2-.6-.2-1 .1-.8.2-1 .3-.5.5-.7.5-.3.7-.4.6-.1.8-.1h.5c.2 0 .3.1.4.1s.2.1.3.1h1.2v1.6h-1c0-.2-.1-.4-.2-.5s-.3-.2-.5-.2c-.1 0-.2 0-.3.1s-.2.1-.2.2-.1.2-.2.4-.1.4-.1.6v.6c0 .2.1.3.1.4s.1.2.2.2.2.1.3.1h.2s.1 0 .1-.1v-.1c0-.1 0-.2-.1-.2s-.2-.1-.4-.1v-1h2.5v1c-.2 0-.3 0-.4.1s-.1.1-.1.3v1.2h-1z"/></g><path fill="#fc0" d="M163.3 284.7h13.3v2h-13.3z"/><path d="M164.3 288h11.4v1.2h-11.4z" class="D"/><path fill="#fc0" d="M150 297h12.4v1.8H150z"/><path d="M164.3 290h11.4v1.2h-11.4zm0 2.4h11.4v1.2h-11.4zm0 2.2h11.4v1.2h-11.4zm0 2.4h11.4l-.6 10h-10.8zm-14 3h11.3v1.4h-11.3zm0 2.7h11.3v1.4h-11.3zm0 2.6h11.3v1.4h-11.3z" class="D"/><circle cx="156.2" cy="290.6" r="5.8" fill="#6cf"/><path d="M157 291.7c0-.1.6-.7.8-1 .3.3.6-.4.7-.6.1-.3.2-.8-.3-.7.1-.5.2-1 .1-1.5-.1-.4-.3-1-.7-1.2-.5-.3-1-.4-1.5-.4-.4 0-1 .1-1.5.4-.4.2-.6.8-.7 1.2-.1.5 0 1 .1 1.5-.5-.1-.4.5-.3.7.1.2.4 1 .7.6.1.3.8 1 .8 1 0 .1-3.3 1.5-3.5 1.7-.1.2-.2.4-.3.7 1 1.4 2.7 2.3 4.5 2.3 2 0 3.5-1 4.6-2.3l-.2-.6c-.1-.2-3.4-1.6-3.5-1.7z"/></svg>